<?xml version="1.0" encoding="utf-8"?>
<!-- Generator: Adobe Illustrator 25.4.0, SVG Export Plug-In . SVG Version: 6.00 Build 0)  -->
<svg version="1.1" id="Layer_1" xmlns="http://www.w3.org/2000/svg" xmlns:xlink="http://www.w3.org/1999/xlink" x="0px" y="0px"
	 viewBox="0 0 800 800" style="enable-background:new 0 0 800 800;" xml:space="preserve">
<style type="text/css">
	.st0{fill-rule:evenodd;clip-rule:evenodd;fill:#FFFFFF;}
</style>
<path class="st0" d="M259.1,66.7c50.8,0,91.9,44.8,91.9,100v466.7c0,55.2-41.2,100-91.9,100h-30.6c-50.8,0-91.9-44.8-91.9-100V166.7
	c0-55.2,41.2-100,91.9-100H259.1z"/>
<path class="st0" d="M571.6,66.7c50.8,0,91.9,44.8,91.9,100v466.7c0,55.2-41.2,100-91.9,100H541c-50.8,0-91.9-44.8-91.9-100V166.7
	c0-55.2,41.2-100,91.9-100H571.6z"/>
</svg>
